<svg id="SvgjsSvg1001" width="288" height="288" xmlns="http://www.w3.org/2000/svg" version="1.1" xmlns:xlink="http://www.w3.org/1999/xlink" xmlns:svgjs="http://svgjs.com/svgjs"><defs id="SvgjsDefs1002"></defs><g id="SvgjsG1008" transform="matrix(0.9167,0,0,0.9167,11.995200000000011,11.292356250000012)"><svg xmlns="http://www.w3.org/2000/svg" width="288" height="288" viewBox="0 0 16 16"><path style="text-indent:0;text-align:start;line-height:normal;text-transform:none;block-progression:tb" fill-rule="evenodd" d="M 4 2 L 4 3 L 3 3 L 3 4 L 4 4 L 4 5 L 5 5 L 5 4 L 6 4 L 6 3 L 5 3 L 5 2 L 4 2 z M 8 4.9375 L 7.78125 5.0625 L 2.875 7.5 L 8 10.0625 L 13.125 7.5 L 8 4.9375 z M 5 9.5 L 2.875 10.5 L 8 13.0625 L 13.125 10.5 L 11.03125 9.5 L 8 11 L 7 10.5 L 6.09375 10.0625 L 5 9.5 z " color="#000" font-family="sans-serif" font-weight="400" overflow="visible" fill="#d5000a" class="color000 svgShape"></path></svg></g></svg>