<svg id="SvgjsSvg1045" width="288" height="288" xmlns="http://www.w3.org/2000/svg" version="1.1" xmlns:xlink="http://www.w3.org/1999/xlink" xmlns:svgjs="http://svgjs.com/svgjs"><defs id="SvgjsDefs1046"></defs><g id="SvgjsG1047" transform="matrix(0.9167,0,0,0.9167,11.995200635528562,11.995199920558946)"><svg xmlns="http://www.w3.org/2000/svg" data-name="Layer 1" viewBox="0 0 512 512" width="288" height="288"><g data-name="&amp;lt;Group&amp;gt;" fill="#ffffff" class="color000 svgShape"><path fill="#ff8066" d="M435.09,126.91V456a19.994,19.994,0,0,1-20,20H112.91a36.106,36.106,0,0,1-36-36V74.22h.1c1.39,18.54,16.67,32.69,35.9,32.69h35.82V301.98a6,6,0,0,0,9.92,4.55l43.71-37.74,43.72,37.74a6,6,0,0,0,9.92-4.55V106.91H415.09A19.994,19.994,0,0,1,435.09,126.91Z" class="color00efd1 svgShape"></path><path fill="#ffbf66" d="M401.45,56v50.91H112.91c-19.23,0-34.51-14.15-35.9-32.69-.07-.92-.1-1.84-.1-2.77A35.072,35.072,0,0,1,87.54,46.48,36.179,36.179,0,0,1,112.91,36H381.45A19.994,19.994,0,0,1,401.45,56Z" class="colorfedb41 svgShape"></path><path fill="#ffbf66" d="M256,106.91V301.98a6,6,0,0,1-9.92,4.55l-43.72-37.74-43.71,37.74a6,6,0,0,1-9.92-4.55V106.91Z" class="color00acea svgShape"></path><path fill="#ff8066" d="M415.09,96.91h-3.64V56a30.034,30.034,0,0,0-30-30H112.91A45.934,45.934,0,0,0,80.524,39.354,44.807,44.807,0,0,0,66.91,71.45c0,.658.012,1.293.036,1.914-.024.282-.036.568-.036.856V440a46.052,46.052,0,0,0,46,46H415.09a30.034,30.034,0,0,0,30-30V126.91A30.034,30.034,0,0,0,415.09,96.91ZM94.557,53.605A26.05,26.05,0,0,1,112.91,46H381.45a10.011,10.011,0,0,1,10,10V96.91H112.91c-13.78,0-24.926-10.076-25.929-23.449-.048-.628-.071-1.286-.071-2.011A24.958,24.958,0,0,1,94.557,53.605ZM158.73,116.91H246V293.25l-37.106-32.03a10,10,0,0,0-13.07,0l-37.095,32.028V116.91ZM425.09,456a10.011,10.011,0,0,1-10,10H112.91a26.03,26.03,0,0,1-26-26V109.136a46.612,46.612,0,0,0,26,7.774h25.82V301.98A16,16,0,0,0,165.185,314.1L202.361,282l37.194,32.106a15.876,15.876,0,0,0,10.395,3.905,16.09,16.09,0,0,0,6.719-1.484A15.842,15.842,0,0,0,266,301.979V116.91h149.09a10.011,10.011,0,0,1,10,10V456Z" class="color083863 svgShape"></path></g></svg></g></svg>