<svg id="SvgjsSvg1030" width="288" height="288" xmlns="http://www.w3.org/2000/svg" version="1.1" xmlns:xlink="http://www.w3.org/1999/xlink" xmlns:svgjs="http://svgjs.com/svgjs"><defs id="SvgjsDefs1031"></defs><g id="SvgjsG1032" transform="matrix(0.9167,0,0,0.9167,11.995200158882142,11.548363679504405)"><svg xmlns="http://www.w3.org/2000/svg" width="288" height="288" viewBox="0 0 32 33.228"><path d="M14 5c0-2.676-2.324-5-5-5S4 2.324 4 5s2.324 5 5 5 5-2.324 5-5zm3.5 19c0-8-4.152-12-8.75-12S0 16 0 24c0 5.48 17.5 5.48 17.5 0zm6-10.11c2.676 0 5-2.324 5-5s-2.324-5-5-5-5 2.324-5 5 2.324 5 5 5zm-.25 2c-1.382 0-2.706.406-3.906 1.13.726 1.952 1.156 4.266 1.156 6.98 0 2.694-1.796 4.792-4.878 5.992C19.444 33.228 32 32.538 32 27.89c0-8-4.152-12-8.75-12z" fill="#1572e8" class="color000 svgShape"></path></svg></g></svg>