<svg id="SvgjsSvg1026" width="288" height="288" xmlns="http://www.w3.org/2000/svg" version="1.1" xmlns:xlink="http://www.w3.org/1999/xlink" xmlns:svgjs="http://svgjs.com/svgjs"><defs id="SvgjsDefs1027"></defs><g id="SvgjsG1028" transform="matrix(0.9167,0,0,0.9167,11.64512449226379,11.997608017730727)"><svg xmlns="http://www.w3.org/2000/svg" viewBox="0 0 32 32" width="288" height="288"><g data-name="Play Button" fill="#ff6699" class="color000 svgShape"><path fill="#ffbf66" d="M22.58,13.41,11.52,6.91A3,3,0,0,0,7,9.5v13a3,3,0,0,0,1.51,2.61,3.08,3.08,0,0,0,1.49.4,3,3,0,0,0,1.52-.42l11.06-6.5a3,3,0,0,0,0-5.18Z" class="color8c9eff svgShape"></path><path fill="#ff8066" d="M7,16v6.5a3,3,0,0,0,1.51,2.61,3.08,3.08,0,0,0,1.49.4,3,3,0,0,0,1.52-.42l11.06-6.5A3,3,0,0,0,24.06,16Z" class="color5f7cf9 svgShape"></path></g></svg></g></svg>