<svg id="SvgjsSvg1011" width="288" height="288" xmlns="http://www.w3.org/2000/svg" version="1.1" xmlns:xlink="http://www.w3.org/1999/xlink" xmlns:svgjs="http://svgjs.com/svgjs"><defs id="SvgjsDefs1012"></defs><g id="SvgjsG1013" transform="matrix(0.9167,0,0,0.9167,11.995886807775491,11.995280473804485)"><svg xmlns="http://www.w3.org/2000/svg" data-name="Layer 1" viewBox="0 0 512 512" width="288" height="288"><path fill="#52cc99" d="M278.56,385.26,111.81,419c-22.11,4.47-43.89-12.17-48.67-37.16L8.43,95.26c-4.77-25,9.28-48.87,31.38-53.33L206.57,8.23c22.1-4.47,43.89,12.16,48.66,37.15l54.71,286.55C314.72,356.91,300.66,380.79,278.56,385.26Z" class="colore3232e svgShape"></path><path fill="#52cc99" d="M355.71,501.28l-157-70.68c-20.8-9.36-31.06-36.33-22.9-60.23l93.54-274C277.53,72.45,301,60.67,321.82,70l157,70.68c20.81,9.37,31.06,36.33,22.91,60.23L408.15,475C400,498.87,376.52,510.65,355.71,501.28Z" class="colorfed947 svgShape"></path><path fill="#52cc99" d="M355.71,501.28l-157-70.68c-20.8-9.36-31.06-36.33-22.9-60.23l93.54-274C277.53,72.45,301,60.67,321.82,70l157,70.68c20.81,9.37,31.06,36.33,22.91,60.23L408.15,475C400,498.87,376.52,510.65,355.71,501.28Z" class="colorfed947 svgShape"></path></svg></g></svg>