<svg id="SvgjsSvg1033" width="288" height="288" xmlns="http://www.w3.org/2000/svg" version="1.1" xmlns:xlink="http://www.w3.org/1999/xlink" xmlns:svgjs="http://svgjs.com/svgjs"><defs id="SvgjsDefs1034"></defs><g id="SvgjsG1035" transform="matrix(0.9167,0,0,0.9167,11.995572419738778,12.004482530212414)"><svg xmlns="http://www.w3.org/2000/svg" width="288" height="288" data-name="Layer 1" viewBox="0 0 48 48"><path d="M15.8 25.72a16.52 16.52 0 0 0-4.75 9.88h0A1.21 1.21 0 0 0 12.39 37a16.55 16.55 0 0 0 9.89-4.75l3.81-3.81-6.48-6.48zM35.62 12.38a4.58 4.58 0 0 0-6.48 0L28 13.48l-1.86-1.85a2 2 0 0 0-2.86 0L18.05 16.9a.81.81 0 0 0 0 1.15L19.2 19.2a.81.81 0 0 0 1.14 0l4.41-4.42 1 1-5 5 6.48 6.48 8.38-8.38A4.58 4.58 0 0 0 35.62 12.38z" fill="#d387fd" class="color000 svgShape"></path></svg></g></svg>